<?xml version="1.0" encoding="UTF-8" standalone="no"?>
<svg
   viewBox="-1 -1.5 20.799286 20.092787"
   width="20.799286"
   fill="currentColor"
   version="1.1"
   id="svg4"
   sodipodi:docname="magic.svg"
   height="20.092787"
   inkscape:version="1.2.2 (b0a8486541, 2022-12-01)"
   xmlns:inkscape="http://www.inkscape.org/namespaces/inkscape"
   xmlns:sodipodi="http://sodipodi.sourceforge.net/DTD/sodipodi-0.dtd"
   xmlns="http://www.w3.org/2000/svg"
   xmlns:svg="http://www.w3.org/2000/svg">
  <defs
     id="defs8" />
  <sodipodi:namedview
     id="namedview6"
     pagecolor="#ffffff"
     bordercolor="#000000"
     borderopacity="0.25"
     inkscape:showpageshadow="2"
     inkscape:pageopacity="0.0"
     inkscape:pagecheckerboard="0"
     inkscape:deskcolor="#d1d1d1"
     showgrid="false"
     inkscape:zoom="15.129139"
     inkscape:cx="13.748304"
     inkscape:cy="15.830379"
     inkscape:window-width="1522"
     inkscape:window-height="1236"
     inkscape:window-x="120"
     inkscape:window-y="82"
     inkscape:window-maximized="0"
     inkscape:current-layer="svg4" />
  <path
     d="m 12.728287,5.572 3.535,-3.536 -0.707,-0.707 -3.535,3.535 z m -1.415,1.414 -0.707,-0.707 -9.1910003,9.191 0.707,0.707 9.1920003,-9.192 z m 4.95,-7.778 2.121,2.12 a 1,1 0 0 1 0,1.415 L 2.8282867,18.3 a 1,1 0 0 1 -1.414,0 l -2.12100004,-2.12 a 1,1 0 0 1 0,-1.415 L 14.849287,-0.792 a 1,1 0 0 1 1.414,0 z M 7.0712867,-1.5 l 1.393,0.704 1.435,-0.704 -0.68,1.46 0.68,1.368 -1.384,-0.664 -1.444,0.664 0.689,-1.42 -0.69,-1.408 z m 9.9000003,7.07 1.393,0.705 1.435,-0.704 -0.68,1.46 0.68,1.368 -1.384,-0.664 -1.445,0.664 0.69,-1.42 -0.69,-1.408 z"
     id="path2" />
</svg>
