<?xml version="1.0" encoding="UTF-8" standalone="no"?>
<svg
   viewBox="-7.25 -5 10.5 14"
   width="14"
   fill="currentColor"
   version="1.1"
   id="svg4"
   sodipodi:docname="table-cell-merge.svg"
   height="14"
   inkscape:version="1.2.2 (b0a8486541, 2022-12-01)"
   xmlns:inkscape="http://www.inkscape.org/namespaces/inkscape"
   xmlns:sodipodi="http://sodipodi.sourceforge.net/DTD/sodipodi-0.dtd"
   xmlns="http://www.w3.org/2000/svg"
   xmlns:svg="http://www.w3.org/2000/svg">
  <defs
     id="defs8" />
  <sodipodi:namedview
     id="namedview6"
     pagecolor="#ffffff"
     bordercolor="#000000"
     borderopacity="0.25"
     inkscape:showpageshadow="2"
     inkscape:pageopacity="0.0"
     inkscape:pagecheckerboard="0"
     inkscape:deskcolor="#d1d1d1"
     showgrid="false"
     inkscape:zoom="21.395833"
     inkscape:cx="8.5063291"
     inkscape:cy="12.736125"
     inkscape:window-width="1522"
     inkscape:window-height="1236"
     inkscape:window-x="373"
     inkscape:window-y="107"
     inkscape:window-maximized="0"
     inkscape:current-layer="svg4" />
  <path
     d="m -5,-3 h -2 v 2 h 2 z m 2,0 v 2 h 2 v -2 h 2 v 2 H 3 V -3 Z M 3,1 H -3 V 7 H 3 Z M -5,7 V 5 H -7 V 7 Z M -7,3 h 2 V 1 h -2 z m 0,-8 H 3 c 1.10457,0 2,0.8954305 2,2 V 7 C 5,8.10457 4.10457,9 3,9 H -7 C -8.1045695,9 -9,8.10457 -9,7 V -3 c 0,-1.1045695 0.8954305,-2 2,-2 z"
     id="path2" />
</svg>
