<?xml version="1.0" encoding="UTF-8" standalone="no"?>
<svg
   viewBox="-7.25 -5 10.5 14"
   width="14"
   fill="currentColor"
   version="1.1"
   id="svg4"
   sodipodi:docname="table-col-after.svg"
   height="14"
   inkscape:version="1.2.2 (b0a8486541, 2022-12-01)"
   xmlns:inkscape="http://www.inkscape.org/namespaces/inkscape"
   xmlns:sodipodi="http://sodipodi.sourceforge.net/DTD/sodipodi-0.dtd"
   xmlns="http://www.w3.org/2000/svg"
   xmlns:svg="http://www.w3.org/2000/svg">
  <defs
     id="defs8" />
  <sodipodi:namedview
     id="namedview6"
     pagecolor="#ffffff"
     bordercolor="#000000"
     borderopacity="0.25"
     inkscape:showpageshadow="2"
     inkscape:pageopacity="0.0"
     inkscape:pagecheckerboard="0"
     inkscape:deskcolor="#d1d1d1"
     showgrid="false"
     inkscape:zoom="15.129139"
     inkscape:cx="12.360254"
     inkscape:cy="19.465748"
     inkscape:window-width="1522"
     inkscape:window-height="1236"
     inkscape:window-x="120"
     inkscape:window-y="82"
     inkscape:window-maximized="0"
     inkscape:current-layer="svg4" />
  <path
     d="m 3,-5 c 1.10457,0 2,0.8954305 2,2 v 1 C 5,-1.4477152 4.552285,-1 4,-1 3.447715,-1 3,-1.4477152 3,-2 V -3 H -3 V 7 H 3 V 6 C 3,5.447715 3.447715,5 4,5 4.552285,5 5,5.447715 5,6 V 7 C 5,8.10457 4.10457,9 3,9 H -7 C -8.1045695,9 -9,8.10457 -9,7 V -3 c 0,-1.1045695 0.8954305,-2 2,-2 z M -5,5 h -2 v 2 h 2 z m 6,-6 c 0.552285,0 1,0.4477152 1,1 V 1 H 3 C 3.552285,1 4,1.4477152 4,2 4,2.5522847 3.552285,3 3,3 H 2 V 4 C 2,4.5522848 1.552285,5 1,5 0.4477153,5 0,4.5522848 0,4 V 3 H -1 C -1.5522848,3 -2,2.5522847 -2,2 -2,1.4477152 -1.5522848,1 -1,1 H 0 V 0 c 0,-0.5522848 0.4477153,-1 1,-1 z m -6,2 h -2 v 2 h 2 z m 0,-4 h -2 v 2 h 2 z"
     id="path2" />
</svg>
