<?xml version="1.0" encoding="UTF-8" standalone="no"?>
<svg
   viewBox="-7.25 -5 10.5 14"
   width="14"
   fill="currentColor"
   version="1.1"
   id="svg4"
   sodipodi:docname="table-col-before.svg"
   height="14"
   inkscape:version="1.2.2 (b0a8486541, 2022-12-01)"
   xmlns:inkscape="http://www.inkscape.org/namespaces/inkscape"
   xmlns:sodipodi="http://sodipodi.sourceforge.net/DTD/sodipodi-0.dtd"
   xmlns="http://www.w3.org/2000/svg"
   xmlns:svg="http://www.w3.org/2000/svg">
  <defs
     id="defs8" />
  <sodipodi:namedview
     id="namedview6"
     pagecolor="#ffffff"
     bordercolor="#000000"
     borderopacity="0.25"
     inkscape:showpageshadow="2"
     inkscape:pageopacity="0.0"
     inkscape:pagecheckerboard="0"
     inkscape:deskcolor="#d1d1d1"
     showgrid="false"
     inkscape:zoom="21.395833"
     inkscape:cx="6.6835443"
     inkscape:cy="9.3709834"
     inkscape:window-width="1522"
     inkscape:window-height="1236"
     inkscape:window-x="120"
     inkscape:window-y="82"
     inkscape:window-maximized="0"
     inkscape:current-layer="svg4" />
  <path
     d="M -1,7 V -3 h -6 v 1 c 0,0.5522848 -0.4477153,1 -1,1 -0.5522848,0 -1,-0.4477152 -1,-1 v -1 c 0,-1.1045695 0.8954305,-2 2,-2 H 3 c 1.10457,0 2,0.8954305 2,2 V 7 C 5,8.10457 4.10457,9 3,9 H -7 C -8.1045695,9 -9,8.10457 -9,7 V 6 c 0,-0.552285 0.4477152,-1 1,-1 0.5522847,0 1,0.447715 1,1 V 7 Z M 1,7 H 3 V 5 H 1 Z M 3,3 V 1 H 1 V 3 Z M 3,-1 V -3 H 1 v 2 z M -6,1 V 0 c 0,-0.5522848 0.4477153,-1 1,-1 0.5522847,0 1,0.4477152 1,1 v 1 h 1 c 0.5522847,0 1,0.4477152 1,1 0,0.5522847 -0.4477153,1 -1,1 H -4 V 4 C -4,4.5522848 -4.4477153,5 -5,5 -5.5522847,5 -6,4.5522848 -6,4 V 3 H -7 C -7.5522848,3 -8,2.5522847 -8,2 -8,1.4477152 -7.5522848,1 -7,1 Z"
     id="path2" />
</svg>
